<?xml version="1.0" standalone="no"?>
<!DOCTYPE svg PUBLIC "-//W3C//DTD SVG 20010904//EN"
 "http://www.w3.org/TR/2001/REC-SVG-20010904/DTD/svg10.dtd">
<svg version="1.0" xmlns="http://www.w3.org/2000/svg"
 width="210.000000pt" height="210.000000pt" viewBox="0 0 210.000000 210.000000"
 preserveAspectRatio="xMidYMid meet">
<metadata>
Created by potrace 1.14, written by Peter Selinger 2001-2017
</metadata>
<g transform="translate(0.000000,210.000000) scale(0.100000,-0.100000)"
fill="#000000" stroke="none">
<path d="M0 1650 l0 -400 50 0 50 0 0 -400 0 -400 50 0 50 0 0 400 0 400 -50
0 -50 0 0 350 0 350 150 0 150 0 0 -50 0 -50 50 0 50 0 0 -50 0 -50 50 0 50 0
0 -50 0 -50 50 0 50 0 0 -50 0 -50 50 0 50 0 0 -50 0 -50 250 0 250 0 0 50 0
50 50 0 50 0 0 50 0 50 50 0 50 0 0 50 0 50 50 0 50 0 0 50 0 50 50 0 50 0 0
50 0 50 150 0 150 0 0 -300 0 -300 -50 0 -50 0 0 -500 0 -500 -50 0 -50 0 0
-50 0 -50 -50 0 -50 0 0 -50 0 -50 -550 0 -550 0 0 50 0 50 -50 0 -50 0 0 50
0 50 -50 0 -50 0 0 50 0 50 -50 0 -50 0 0 -50 0 -50 50 0 50 0 0 -100 0 -100
100 0 100 0 0 -50 0 -50 550 0 550 0 0 50 0 50 50 0 50 0 0 50 0 50 50 0 50 0
0 50 0 50 50 0 50 0 0 500 0 500 50 0 50 0 0 350 0 350 -200 0 -200 0 0 -50 0
-50 -50 0 -50 0 0 -50 0 -50 -50 0 -50 0 0 -50 0 -50 -50 0 -50 0 0 -50 0 -50
-50 0 -50 0 0 -50 0 -50 -250 0 -250 0 0 50 0 50 -50 0 -50 0 0 50 0 50 -50 0
-50 0 0 50 0 50 -50 0 -50 0 0 50 0 50 -50 0 -50 0 0 50 0 50 -200 0 -200 0 0
-400z"/>
<path d="M200 1600 l0 -250 50 0 50 0 0 -50 0 -50 50 0 50 0 0 -50 0 -50 100
0 100 0 0 150 0 150 -50 0 -50 0 0 50 0 50 -50 0 -50 0 0 100 0 100 -50 0 -50
0 0 50 0 50 -50 0 -50 0 0 -250z"/>
<path d="M1800 1800 l0 -50 -50 0 -50 0 0 -50 0 -50 -50 0 -50 0 0 -50 0 -50
-50 0 -50 0 0 -150 0 -150 100 0 100 0 0 50 0 50 50 0 50 0 0 50 0 50 50 0 50
0 0 200 0 200 -50 0 -50 0 0 -50z"/>
<path d="M500 800 l0 -50 150 0 150 0 0 -50 0 -50 50 0 50 0 0 50 0 50 -50 0
-50 0 0 50 0 50 -150 0 -150 0 0 -50z"/>
<path d="M1400 800 l0 -50 -50 0 -50 0 0 -50 0 -50 50 0 50 0 0 50 0 50 150 0
150 0 0 50 0 50 -150 0 -150 0 0 -50z"/>
<path d="M1000 400 l0 -50 50 0 50 0 0 -50 0 -50 100 0 100 0 0 50 0 50 50 0
50 0 0 50 0 50 -200 0 -200 0 0 -50z"/>
</g>
</svg>
